<svg width="24" height="16" viewBox="0 0 24 16" fill="none" xmlns="http://www.w3.org/2000/svg">
<path d="M0 3C0 1.62109 1.19583 0.5 2.66667 0.5H13.3333C14.8042 0.5 16 1.62109 16 3V13C16 14.3789 14.8042 15.5 13.3333 15.5H2.66667C1.19583 15.5 0 14.3789 0 13V3ZM23.2958 1.89844C23.7292 2.11719 24 2.53906 24 3V13C24 13.4609 23.7292 13.8828 23.2958 14.1016C22.8625 14.3203 22.3375 14.2969 21.925 14.0391L17.925 11.5391L17.3333 11.168V10.5V5.5V4.83203L17.925 4.46094L21.925 1.96094C22.3333 1.70703 22.8583 1.67969 23.2958 1.89844Z" fill="#6D28D9"/>
</svg>
